<?xml version="1.0" standalone="no"?>
<!DOCTYPE svg PUBLIC "-//W3C//DTD SVG 20010904//EN"
 "http://www.w3.org/TR/2001/REC-SVG-20010904/DTD/svg10.dtd">
<svg version="1.0" xmlns="http://www.w3.org/2000/svg"
 width="1948.000000pt" height="589.000000pt" viewBox="0 0 1948.000000 589.000000"
 preserveAspectRatio="xMidYMid meet">

<g transform="translate(0.000000,589.000000) scale(0.100000,-0.100000)"
fill="#000000" stroke="none">
<path d="M0 4330 l0 -1560 63 23 c34 13 249 93 478 178 l416 154 6 340 c6 427
31 657 109 1035 64 313 172 668 289 958 33 81 61 150 62 155 1 4 -63 68 -143
142 l-145 134 -567 1 -568 0 0 -1560z"/>
<path d="M2209 5888 c-1 -2 -12 -214 -24 -473 l-21 -470 43 -243 44 -244 -226
-490 c-125 -270 -240 -520 -255 -557 -15 -36 -173 -379 -350 -761 -551 -1190
-1220 -2640 -1220 -2645 0 -3 701 -4 1557 -3 l1557 3 72 357 71 358 -86 108
c-487 607 -786 1323 -876 2097 -19 165 -32 634 -18 658 9 17 79 -22 1253 -699
125 -71 146 -81 152 -66 4 9 33 145 64 302 31 157 60 288 66 291 5 3 107 46
226 94 120 48 220 91 224 94 4 4 3 78 -2 166 -5 88 -10 192 -11 232 l-2 71
-46 18 c-25 9 -49 19 -53 23 -9 8 65 190 124 307 52 101 113 204 164 277 19
26 34 51 34 55 0 4 -44 48 -97 97 -54 50 -136 126 -183 170 -198 185 -457 424
-487 449 -31 26 -34 27 -340 46 -670 42 -776 50 -779 53 -5 4 102 179 160 262
l45 65 -389 0 c-215 0 -391 -1 -391 -2z"/>
<path d="M15941 5627 c-51 -144 -214 -594 -361 -1000 l-267 -738 314 -307 315
-307 -5 -38 c-4 -30 -861 -2403 -873 -2416 -3 -3 -86 24 -444 149 -257 90
-269 94 -274 89 -1 -2 -86 -233 -189 -514 -102 -280 -188 -518 -192 -527 -7
-17 128 -18 2754 -18 l2761 0 0 2945 0 2945 -1722 0 -1723 0 -94 -263z"/>
</g>
</svg>
